<svg width="278" height="60" viewBox="0 0 751 162" xmlns="http://www.w3.org/2000/svg" xmlns:xlink="http://www.w3.org/1999/xlink"><title>askia_logo</title><defs><path id="a" d="M.874.723h139.338v125.324H.874V.723z"/><path id="c" d="M0 .13v76.485h26.44V.13H0z"/></defs><g fill="none" fill-rule="evenodd"><path d="M353.04 55.713c-.16-5.204 5.952-7.98 12.477-7.98 11.5 0 15.992 6.01 20.875 11.59 3.11 3.542 8.058 6.795 16.215 7.323 7.86.497 14.88-1.6 16.195-6.327 4-14.347-29.223-22.982-53.285-22.982-32.312 0-56.05 6.018-58.28 23.796-4.786 38.403 67.852 25.36 69.904 44.65.755 7.003-6.87 9.94-15.305 9.94-11.508 0-17.43-7.68-22.323-13.253-3.117-3.54-7.55-8.106-17.39-7.828-8.38.268-15.062 2.348-17.055 8.495-4.698 14.537 32.726 22.992 56.768 22.992 31.48 0 65.144-4.805 65.144-29.31 0-31.627-73.38-23.07-73.94-41.107M695.238 91.986c0 6.246-.46 12.614-10.967 15.44-7.516 2.03-16.692-.337-17.308-9.95-.916-14.424 15.75-17.29 28.276-21.18v15.69zm47.814-1.702V67.64c0-24.51-28.874-30.302-60.34-30.302-24.068 0-58.828 7.73-55.086 22.98 1.252 5.064 9.213 6.586 16.733 6.28 7.085-.28 13.07-4.32 16.176-7.83 4.89-5.582 9.034-11.034 20.542-11.034 5.998 0 12.306 2.646 12.306 7.5 0 9.105-13.81 10.735-34.062 15.293-20.346 4.545-41.795 10.973-41.795 29.686 0 26.573 47.11 33.895 77.81 13.92 7.202 8.544 30.36 18.025 55.483 4.196-7.65-8.935-7.768-15.38-7.768-28.046z" fill="#FFF"/><path d="M250.572 91.986c0 6.246-.437 12.614-10.964 15.44-7.503 2.03-16.697-.337-17.313-9.95-.895-14.424 15.757-17.29 28.277-21.18v15.69zm47.814-24.345c0-24.51-28.854-30.302-60.334-30.302-24.05 0-58.81 7.73-55.072 22.98 1.234 5.064 9.19 6.586 16.742 6.28 7.075-.28 13.063-4.32 16.156-7.83 4.898-5.582 9.025-11.034 20.527-11.034 6.007 0 12.335 2.646 12.335 7.5 0 9.105-13.81 10.735-34.063 15.293-20.346 4.545-41.795 10.973-41.795 29.686 0 26.573 47.097 33.895 77.797 13.92 7.213 8.544 30.367 18.025 55.494 4.196-7.65-8.935-7.788-15.38-7.788-28.046V67.64zM611.43 39.316h-26.862c-18.535 0-20.957 2.697-20.957 9.611v56.857c0 21.46 36.238 24.593 55.58 12.544-7.58-9.44-7.762-13.06-7.762-32.123V39.316zM587.523 34.273c13.087 0 25.127-3.035 25.127-15.758 0-12.696-12.04-15.72-25.127-15.72-13.11 0-25.143 3.024-25.143 15.72 0 12.723 12.032 15.758 25.143 15.758" fill="#FFF"/><g transform="translate(424 -.723)"><mask id="b" fill="#fff"><use xlink:href="#a"/></mask><path d="M116.533 91.615c-5.96-7.562-9.63-12.756-14.73-20.127l29.833-31.45h-29.504c-9.377 0-22.166 1.962-28.417 9.572-2.843 3.452-11.16 13.34-17.25 20.605V.722l-40.252 13.87C10.64 16.62 8.65 19.417 8.65 24.918v62.01c0 19.062-.187 22.683-7.776 32.124 19.326 12.048 55.59 8.915 55.59-12.545V81.705c6.046 8.565 14.485 20.077 19.94 27.578 8.078 11.183 14.882 15.838 33.048 16.674 11.262.527 19.787-1.195 30.76-7.133-4.48-3.582-9.573-9.382-23.68-27.21" fill="#FFF" mask="url(#b)"/></g><g transform="translate(0 15.277)"><mask id="d" fill="#fff"><use xlink:href="#c"/></mask><path d="M.024 68.47c0 5.533 1.906 9.578 7.56 7.663 4.415-1.498 6.975-2.36 11.252-3.92 5.6-2.03 7.58-4.835 7.58-10.336l.023-53.595c0-5.522-1.94-9.603-7.575-7.662-4.404 1.517-7.003 2.37-11.3 3.92C1.992 6.553 0 9.367 0 14.87L.024 68.47z" fill="#FFF" mask="url(#d)"/></g><path d="M42.185 69.123c0 5.532 1.91 9.577 7.562 7.66 4.413-1.495 6.973-2.358 11.25-3.92 5.602-2.03 7.582-4.834 7.582-10.336l-.01-53.593c0-5.522-1.936-9.603-7.574-7.662-4.4 1.517-6.973 2.37-11.27 3.92-5.573 2.01-7.56 4.826-7.56 10.33l.02 53.6zM84.316 54.478c0 5.533 1.912 9.578 7.562 7.662 4.413-1.497 6.973-2.358 11.252-3.92 5.6-2.03 7.58-4.835 7.58-10.336l.02-24.172c0-5.52-1.935-9.602-7.573-7.66-4.398 1.517-7.003 2.367-11.3 3.92-5.572 2.01-7.56 4.824-7.56 10.327l.02 24.178zM126.43 39.684c0 5.533 1.908 9.577 7.56 7.66 4.414-1.495 6.97-2.358 11.253-3.92 5.6-2.03 7.58-4.834 7.58-10.336l-.012-24.17c0-5.522-1.93-9.604-7.567-7.662-4.403 1.517-6.943 2.37-11.24 3.92-5.573 2.01-7.565 4.826-7.565 10.327l-.01 24.18zM26.415 153.132c0 5.535-1.906 9.578-7.556 7.662L7.58 156.88c-5.887-2.076-7.56-4.845-7.56-10.357v-27.97c0-5.51 1.673-8.278 7.56-10.355l11.277-3.917c5.65-1.918 7.555 2.127 7.555 7.66v41.194zM68.558 138.384c0 5.532-1.91 9.58-7.562 7.662l-11.27-3.917c-5.89-2.077-7.56-4.848-7.56-10.357v-27.97c0-5.513 1.67-8.28 7.56-10.357l11.27-3.917c5.652-1.918 7.562 2.127 7.562 7.66v41.194zM110.7 153.066c0 5.53-1.905 9.578-7.558 7.66l-11.27-3.917c-5.89-2.076-7.562-4.847-7.562-10.357V89.17c0-5.513 1.67-8.282 7.562-10.357l11.27-3.918c5.653-1.916 7.56 2.13 7.56 7.662v70.51zM152.823 138.25c0 5.534-1.91 9.58-7.56 7.663l-11.273-3.916c-5.887-2.077-7.562-4.848-7.562-10.357V74.355c0-5.51 1.675-8.28 7.563-10.357l11.272-3.917c5.653-1.916 7.56 2.13 7.56 7.662v70.51z" fill="#FFF"/></g></svg>
